<svg width="345" height="78" viewBox="0 0 345 78" fill="none" xmlns="http://www.w3.org/2000/svg">
<g clip-path="url(#clip0_4101_17381)">
<rect width="345" height="78" rx="12" fill="#F0D869"/>
<ellipse cx="72.5" cy="62" rx="125.5" ry="100" fill="white" fill-opacity="0.4"/>
<path d="M19.35 29.5V18.475H21.48V29.5H19.35ZM26.04 29.5L22.68 24.73H25.065L28.53 29.5H26.04ZM20.85 25.84V24.115H23.64C24.03 24.115 24.365 24.035 24.645 23.875C24.935 23.715 25.16 23.49 25.32 23.2C25.48 22.91 25.56 22.58 25.56 22.21C25.56 21.83 25.48 21.495 25.32 21.205C25.16 20.915 24.935 20.69 24.645 20.53C24.365 20.37 24.03 20.29 23.64 20.29H20.85V18.475H23.415C24.295 18.475 25.055 18.605 25.695 18.865C26.345 19.125 26.845 19.52 27.195 20.05C27.545 20.58 27.72 21.245 27.72 22.045V22.285C27.72 23.095 27.54 23.76 27.18 24.28C26.83 24.8 26.335 25.19 25.695 25.45C25.055 25.71 24.295 25.84 23.415 25.84H20.85ZM33.4794 29.785C32.7794 29.785 32.1644 29.665 31.6344 29.425C31.1144 29.185 30.6794 28.865 30.3294 28.465C29.9894 28.055 29.7294 27.6 29.5494 27.1C29.3794 26.6 29.2944 26.09 29.2944 25.57V25.285C29.2944 24.745 29.3794 24.225 29.5494 23.725C29.7294 23.215 29.9894 22.765 30.3294 22.375C30.6794 21.975 31.1094 21.66 31.6194 21.43C32.1294 21.19 32.7194 21.07 33.3894 21.07C34.2694 21.07 35.0044 21.265 35.5944 21.655C36.1944 22.035 36.6444 22.54 36.9444 23.17C37.2444 23.79 37.3944 24.46 37.3944 25.18V25.93H30.1794V24.655H36.0894L35.4444 25.285C35.4444 24.765 35.3694 24.32 35.2194 23.95C35.0694 23.58 34.8394 23.295 34.5294 23.095C34.2294 22.895 33.8494 22.795 33.3894 22.795C32.9294 22.795 32.5394 22.9 32.2194 23.11C31.8994 23.32 31.6544 23.625 31.4844 24.025C31.3244 24.415 31.2444 24.885 31.2444 25.435C31.2444 25.945 31.3244 26.4 31.4844 26.8C31.6444 27.19 31.8894 27.5 32.2194 27.73C32.5494 27.95 32.9694 28.06 33.4794 28.06C33.9894 28.06 34.4044 27.96 34.7244 27.76C35.0444 27.55 35.2494 27.295 35.3394 26.995H37.2594C37.1394 27.555 36.9094 28.045 36.5694 28.465C36.2294 28.885 35.7944 29.21 35.2644 29.44C34.7444 29.67 34.1494 29.785 33.4794 29.785ZM39.3312 29.5V21.16C39.3312 20.23 39.5862 19.545 40.0962 19.105C40.6162 18.655 41.3812 18.43 42.3912 18.43H43.4112V20.035H42.2412C41.9312 20.035 41.6912 20.12 41.5212 20.29C41.3612 20.45 41.2812 20.68 41.2812 20.98V29.5H39.3312ZM38.3112 23.02V21.49H43.5462V23.02H38.3112ZM48.4501 29.785C47.7501 29.785 47.1351 29.665 46.6051 29.425C46.0851 29.185 45.6501 28.865 45.3001 28.465C44.9601 28.055 44.7001 27.6 44.5201 27.1C44.3501 26.6 44.2651 26.09 44.2651 25.57V25.285C44.2651 24.745 44.3501 24.225 44.5201 23.725C44.7001 23.215 44.9601 22.765 45.3001 22.375C45.6501 21.975 46.0801 21.66 46.5901 21.43C47.1001 21.19 47.6901 21.07 48.3601 21.07C49.2401 21.07 49.9751 21.265 50.5651 21.655C51.1651 22.035 51.6151 22.54 51.9151 23.17C52.2151 23.79 52.3651 24.46 52.3651 25.18V25.93H45.1501V24.655H51.0601L50.4151 25.285C50.4151 24.765 50.3401 24.32 50.1901 23.95C50.0401 23.58 49.8101 23.295 49.5001 23.095C49.2001 22.895 48.8201 22.795 48.3601 22.795C47.9001 22.795 47.5101 22.9 47.1901 23.11C46.8701 23.32 46.6251 23.625 46.4551 24.025C46.2951 24.415 46.2151 24.885 46.2151 25.435C46.2151 25.945 46.2951 26.4 46.4551 26.8C46.6151 27.19 46.8601 27.5 47.1901 27.73C47.5201 27.95 47.9401 28.06 48.4501 28.06C48.9601 28.06 49.3751 27.96 49.6951 27.76C50.0151 27.55 50.2201 27.295 50.3101 26.995H52.2301C52.1101 27.555 51.8801 28.045 51.5401 28.465C51.2001 28.885 50.7651 29.21 50.2351 29.44C49.7151 29.67 49.1201 29.785 48.4501 29.785ZM54.1069 29.5V21.355H55.7569V24.805H55.7119C55.7119 23.635 55.9619 22.75 56.4619 22.15C56.9619 21.55 57.6969 21.25 58.6669 21.25H58.9669V23.065H58.3969C57.6969 23.065 57.1519 23.255 56.7619 23.635C56.3819 24.005 56.1919 24.545 56.1919 25.255V29.5H54.1069ZM70.4241 29.5L66.1341 24.88C65.6741 24.38 65.3091 23.945 65.0391 23.575C64.7791 23.205 64.5891 22.85 64.4691 22.51C64.3591 22.17 64.3041 21.8 64.3041 21.4C64.3041 20.78 64.4341 20.25 64.6941 19.81C64.9541 19.36 65.3591 19.015 65.9091 18.775C66.4691 18.535 67.1891 18.415 68.0691 18.415C68.4191 18.415 68.7891 18.43 69.1791 18.46C69.5791 18.49 69.9291 18.53 70.2291 18.58V20.32C70.0291 20.29 69.7791 20.265 69.4791 20.245C69.1791 20.215 68.8791 20.195 68.5791 20.185C68.2891 20.165 68.0491 20.155 67.8591 20.155C67.2291 20.155 66.7991 20.27 66.5691 20.5C66.3491 20.73 66.2391 21.06 66.2391 21.49C66.2391 21.87 66.3291 22.23 66.5091 22.57C66.6891 22.9 66.9741 23.28 67.3641 23.71L72.7641 29.5H70.4241ZM66.7941 29.8C65.9941 29.8 65.2941 29.645 64.6941 29.335C64.1041 29.025 63.6391 28.605 63.2991 28.075C62.9691 27.545 62.8041 26.955 62.8041 26.305V26.095C62.8041 25.375 63.0091 24.735 63.4191 24.175C63.8291 23.605 64.3491 23.165 64.9791 22.855L65.8791 24.025C65.5591 24.215 65.2891 24.495 65.0691 24.865C64.8491 25.225 64.7391 25.64 64.7391 26.11C64.7391 26.51 64.8241 26.86 64.9941 27.16C65.1741 27.45 65.4241 27.675 65.7441 27.835C66.0641 27.995 66.4441 28.075 66.8841 28.075C67.5041 28.075 68.0591 27.905 68.5491 27.565C69.0491 27.225 69.4391 26.705 69.7191 26.005C70.0091 25.295 70.1541 24.39 70.1541 23.29H71.9841C71.9841 24.33 71.8541 25.255 71.5941 26.065C71.3341 26.865 70.9691 27.545 70.4991 28.105C70.0291 28.655 69.4791 29.075 68.8491 29.365C68.2191 29.655 67.5341 29.8 66.7941 29.8ZM68.6391 23.56V22.015H72.7941V23.56H68.6391ZM77.7533 29.5V18.55H79.8383V29.5H77.7533ZM79.5383 29.5V27.7H84.5033V29.5H79.5383ZM79.5383 24.835V23.035H84.1133V24.835H79.5383ZM79.5383 20.35V18.55H84.3833V20.35H79.5383ZM91.4589 29.5V27.085H91.1139V24.4C91.1139 23.93 90.9989 23.58 90.7689 23.35C90.5389 23.12 90.1839 23.005 89.7039 23.005C89.4539 23.005 89.1539 23.01 88.8039 23.02C88.4539 23.03 88.0989 23.045 87.7389 23.065C87.3889 23.075 87.0739 23.09 86.7939 23.11V21.34C87.0239 21.32 87.2839 21.3 87.5739 21.28C87.8639 21.26 88.1589 21.25 88.4589 21.25C88.7689 21.24 89.0589 21.235 89.3289 21.235C90.1689 21.235 90.8639 21.345 91.4139 21.565C91.9739 21.785 92.3939 22.13 92.6739 22.6C92.9639 23.07 93.1089 23.685 93.1089 24.445V29.5H91.4589ZM88.8339 29.71C88.2439 29.71 87.7239 29.605 87.2739 29.395C86.8339 29.185 86.4889 28.885 86.2389 28.495C85.9989 28.105 85.8789 27.635 85.8789 27.085C85.8789 26.485 86.0239 25.995 86.3139 25.615C86.6139 25.235 87.0289 24.95 87.5589 24.76C88.0989 24.57 88.7289 24.475 89.4489 24.475H91.3389V25.72H89.4189C88.9389 25.72 88.5689 25.84 88.3089 26.08C88.0589 26.31 87.9339 26.61 87.9339 26.98C87.9339 27.35 88.0589 27.65 88.3089 27.88C88.5689 28.11 88.9389 28.225 89.4189 28.225C89.7089 28.225 89.9739 28.175 90.2139 28.075C90.4639 27.965 90.6689 27.785 90.8289 27.535C90.9989 27.275 91.0939 26.925 91.1139 26.485L91.6239 27.07C91.5739 27.64 91.4339 28.12 91.2039 28.51C90.9839 28.9 90.6739 29.2 90.2739 29.41C89.8839 29.61 89.4039 29.71 88.8339 29.71ZM95.3422 29.5V21.355H96.9922V24.805H96.9472C96.9472 23.635 97.1972 22.75 97.6972 22.15C98.1972 21.55 98.9322 21.25 99.9022 21.25H100.202V23.065H99.6322C98.9322 23.065 98.3872 23.255 97.9972 23.635C97.6172 24.005 97.4272 24.545 97.4272 25.255V29.5H95.3422ZM101.597 29.5V21.355H103.247V24.85H103.097C103.097 24.02 103.207 23.33 103.427 22.78C103.647 22.22 103.972 21.8 104.402 21.52C104.842 21.24 105.387 21.1 106.037 21.1H106.127C107.097 21.1 107.832 21.415 108.332 22.045C108.832 22.665 109.082 23.595 109.082 24.835V29.5H106.997V24.655C106.997 24.155 106.852 23.75 106.562 23.44C106.282 23.13 105.892 22.975 105.392 22.975C104.882 22.975 104.467 23.135 104.147 23.455C103.837 23.765 103.682 24.185 103.682 24.715V29.5H101.597Z" fill="#101828"/>
<path d="M19.08 46.5V39.2H20.06V46.5H19.08ZM22.0645 46.5V41.16H22.8245V43.45H22.7045C22.7045 42.9233 22.7745 42.48 22.9145 42.12C23.0612 41.7533 23.2812 41.4767 23.5745 41.29C23.8679 41.0967 24.2379 41 24.6845 41H24.7245C25.3979 41 25.8945 41.21 26.2145 41.63C26.5412 42.05 26.7045 42.6567 26.7045 43.45V46.5H25.7445V43.25C25.7445 42.8367 25.6279 42.5067 25.3945 42.26C25.1612 42.0067 24.8412 41.88 24.4345 41.88C24.0145 41.88 23.6745 42.01 23.4145 42.27C23.1545 42.53 23.0245 42.8767 23.0245 43.31V46.5H22.0645ZM29.562 46.5L27.742 41.16H28.742L30.522 46.5H29.562ZM29.802 46.5V45.74H30.962V46.5H29.802ZM30.262 46.5L31.812 41.16H32.752L31.172 46.5H30.262ZM34.2679 46.5V41.16H35.2279V46.5H34.2679ZM33.4479 41.92V41.16H35.2279V41.92H33.4479ZM34.5379 40.3C34.3246 40.3 34.1646 40.2433 34.0579 40.13C33.9579 40.0167 33.9079 39.8733 33.9079 39.7C33.9079 39.5267 33.9579 39.3833 34.0579 39.27C34.1646 39.1567 34.3246 39.1 34.5379 39.1C34.7512 39.1 34.9079 39.1567 35.0079 39.27C35.1146 39.3833 35.1679 39.5267 35.1679 39.7C35.1679 39.8733 35.1146 40.0167 35.0079 40.13C34.9079 40.2433 34.7512 40.3 34.5379 40.3ZM39.1641 46.56C38.7641 46.56 38.4174 46.5033 38.1241 46.39C37.8374 46.2767 37.6141 46.0833 37.4541 45.81C37.3007 45.53 37.2241 45.1533 37.2241 44.68V39.54H38.1441V44.8C38.1441 45.0867 38.2207 45.31 38.3741 45.47C38.5341 45.6233 38.7574 45.7 39.0441 45.7H39.9841V46.56H39.1641ZM36.3041 41.88V41.16H39.9841V41.88H36.3041ZM43.5728 46.68C43.1061 46.68 42.7028 46.6 42.3628 46.44C42.0228 46.28 41.7461 46.07 41.5328 45.81C41.3195 45.5433 41.1595 45.2467 41.0528 44.92C40.9528 44.5933 40.9028 44.26 40.9028 43.92V43.74C40.9028 43.3933 40.9528 43.0567 41.0528 42.73C41.1595 42.4033 41.3195 42.11 41.5328 41.85C41.7461 41.5833 42.0161 41.3733 42.3428 41.22C42.6761 41.06 43.0661 40.98 43.5128 40.98C44.0928 40.98 44.5695 41.1067 44.9428 41.36C45.3228 41.6067 45.6028 41.9267 45.7828 42.32C45.9695 42.7133 46.0628 43.1333 46.0628 43.58V44.01H41.3228V43.29H45.3628L45.1428 43.68C45.1428 43.3 45.0828 42.9733 44.9628 42.7C44.8428 42.42 44.6628 42.2033 44.4228 42.05C44.1828 41.8967 43.8795 41.82 43.5128 41.82C43.1328 41.82 42.8161 41.9067 42.5628 42.08C42.3161 42.2533 42.1295 42.49 42.0028 42.79C41.8828 43.09 41.8228 43.4367 41.8228 43.83C41.8228 44.21 41.8828 44.5533 42.0028 44.86C42.1295 45.16 42.3228 45.4 42.5828 45.58C42.8428 45.7533 43.1728 45.84 43.5728 45.84C43.9928 45.84 44.3328 45.7467 44.5928 45.56C44.8595 45.3733 45.0195 45.1567 45.0728 44.91H45.9728C45.8995 45.2767 45.7528 45.5933 45.5328 45.86C45.3128 46.1267 45.0361 46.33 44.7028 46.47C44.3695 46.61 43.9928 46.68 43.5728 46.68ZM49.3413 48.58V47.72H50.1113C50.3379 47.72 50.5279 47.69 50.6813 47.63C50.8413 47.5767 50.9713 47.4833 51.0713 47.35C51.1779 47.2167 51.2646 47.04 51.3313 46.82L53.0113 41.16H53.9513L52.1713 47.07C52.0646 47.4233 51.9146 47.71 51.7212 47.93C51.5279 48.1567 51.2913 48.32 51.0113 48.42C50.7379 48.5267 50.4179 48.58 50.0513 48.58H49.3413ZM50.9713 46.38V45.58H52.1313V46.38H50.9713ZM50.8713 46.38L48.9613 41.16H49.9413L51.7713 46.38H50.8713ZM57.5323 46.68C57.0657 46.68 56.6557 46.6 56.3023 46.44C55.949 46.28 55.649 46.07 55.4023 45.81C55.1623 45.5433 54.979 45.2467 54.8523 44.92C54.7323 44.5933 54.6723 44.26 54.6723 43.92V43.74C54.6723 43.4 54.7357 43.0667 54.8623 42.74C54.989 42.4067 55.1757 42.11 55.4223 41.85C55.669 41.5833 55.969 41.3733 56.3223 41.22C56.6757 41.06 57.079 40.98 57.5323 40.98C57.9857 40.98 58.389 41.06 58.7423 41.22C59.0957 41.3733 59.3957 41.5833 59.6423 41.85C59.889 42.11 60.0757 42.4067 60.2023 42.74C60.329 43.0667 60.3923 43.4 60.3923 43.74V43.92C60.3923 44.26 60.329 44.5933 60.2023 44.92C60.0823 45.2467 59.899 45.5433 59.6523 45.81C59.4123 46.07 59.1157 46.28 58.7623 46.44C58.409 46.6 57.999 46.68 57.5323 46.68ZM57.5323 45.82C57.9323 45.82 58.2723 45.7333 58.5523 45.56C58.839 45.38 59.0557 45.14 59.2023 44.84C59.3557 44.54 59.4323 44.2033 59.4323 43.83C59.4323 43.45 59.3557 43.11 59.2023 42.81C59.049 42.51 58.829 42.2733 58.5423 42.1C58.2623 41.9267 57.9257 41.84 57.5323 41.84C57.1457 41.84 56.809 41.9267 56.5223 42.1C56.2357 42.2733 56.0157 42.51 55.8623 42.81C55.709 43.11 55.6323 43.45 55.6323 43.83C55.6323 44.2033 55.7057 44.54 55.8523 44.84C56.0057 45.14 56.2223 45.38 56.5023 45.56C56.789 45.7333 57.1323 45.82 57.5323 45.82ZM63.6802 46.66C63.0468 46.66 62.5602 46.4533 62.2202 46.04C61.8802 45.6267 61.7102 45.03 61.7102 44.25V41.15H62.6702V44.44C62.6702 44.86 62.7835 45.19 63.0102 45.43C63.2368 45.6633 63.5435 45.78 63.9302 45.78C64.3302 45.78 64.6568 45.6533 64.9102 45.4C65.1635 45.14 65.2902 44.7867 65.2902 44.34V41.15H66.2502V46.5H65.4902V44.21H65.6102C65.6102 44.7367 65.5402 45.1833 65.4002 45.55C65.2602 45.91 65.0502 46.1867 64.7702 46.38C64.4968 46.5667 64.1468 46.66 63.7202 46.66H63.6802ZM68.1095 46.5V41.16H68.8695V43.36H68.8295C68.8295 42.58 68.9995 42.01 69.3395 41.65C69.6861 41.2833 70.2028 41.1 70.8895 41.1H71.0695V41.96H70.7295C70.1961 41.96 69.7861 42.1033 69.4995 42.39C69.2128 42.67 69.0695 43.0767 69.0695 43.61V46.5H68.1095ZM74.6264 46.5V40.89C74.6264 40.2967 74.7831 39.86 75.0964 39.58C75.4097 39.3 75.8697 39.16 76.4764 39.16H77.1364V39.96H76.3164C76.0697 39.96 75.8797 40.03 75.7464 40.17C75.6131 40.3033 75.5464 40.49 75.5464 40.73V46.5H74.6264ZM73.8864 41.94V41.22H77.2364V41.94H73.8864ZM78.2559 46.5V41.16H79.0159V43.36H78.9759C78.9759 42.58 79.1459 42.01 79.4859 41.65C79.8326 41.2833 80.3493 41.1 81.0359 41.1H81.2159V41.96H80.8759C80.3426 41.96 79.9326 42.1033 79.6459 42.39C79.3593 42.67 79.2159 43.0767 79.2159 43.61V46.5H78.2559ZM82.6175 46.5V41.16H83.5775V46.5H82.6175ZM81.7975 41.92V41.16H83.5775V41.92H81.7975ZM82.8875 40.3C82.6742 40.3 82.5142 40.2433 82.4075 40.13C82.3075 40.0167 82.2575 39.8733 82.2575 39.7C82.2575 39.5267 82.3075 39.3833 82.4075 39.27C82.5142 39.1567 82.6742 39.1 82.8875 39.1C83.1008 39.1 83.2575 39.1567 83.3575 39.27C83.4642 39.3833 83.5175 39.5267 83.5175 39.7C83.5175 39.8733 83.4642 40.0167 83.3575 40.13C83.2575 40.2433 83.1008 40.3 82.8875 40.3ZM87.7037 46.68C87.237 46.68 86.8337 46.6 86.4937 46.44C86.1537 46.28 85.877 46.07 85.6637 45.81C85.4503 45.5433 85.2903 45.2467 85.1837 44.92C85.0837 44.5933 85.0337 44.26 85.0337 43.92V43.74C85.0337 43.3933 85.0837 43.0567 85.1837 42.73C85.2903 42.4033 85.4503 42.11 85.6637 41.85C85.877 41.5833 86.147 41.3733 86.4737 41.22C86.807 41.06 87.197 40.98 87.6437 40.98C88.2237 40.98 88.7003 41.1067 89.0737 41.36C89.4537 41.6067 89.7337 41.9267 89.9137 42.32C90.1003 42.7133 90.1937 43.1333 90.1937 43.58V44.01H85.4537V43.29H89.4937L89.2737 43.68C89.2737 43.3 89.2137 42.9733 89.0937 42.7C88.9737 42.42 88.7937 42.2033 88.5537 42.05C88.3137 41.8967 88.0103 41.82 87.6437 41.82C87.2637 41.82 86.947 41.9067 86.6937 42.08C86.447 42.2533 86.2603 42.49 86.1337 42.79C86.0137 43.09 85.9537 43.4367 85.9537 43.83C85.9537 44.21 86.0137 44.5533 86.1337 44.86C86.2603 45.16 86.4537 45.4 86.7137 45.58C86.9737 45.7533 87.3037 45.84 87.7037 45.84C88.1237 45.84 88.4637 45.7467 88.7237 45.56C88.9903 45.3733 89.1503 45.1567 89.2037 44.91H90.1037C90.0303 45.2767 89.8837 45.5933 89.6637 45.86C89.4437 46.1267 89.167 46.33 88.8337 46.47C88.5003 46.61 88.1237 46.68 87.7037 46.68ZM91.5567 46.5V41.16H92.3167V43.45H92.1967C92.1967 42.9233 92.2667 42.48 92.4067 42.12C92.5534 41.7533 92.7734 41.4767 93.0667 41.29C93.3601 41.0967 93.7301 41 94.1767 41H94.2167C94.8901 41 95.3867 41.21 95.7067 41.63C96.0334 42.05 96.1967 42.6567 96.1967 43.45V46.5H95.2367V43.25C95.2367 42.8367 95.1201 42.5067 94.8867 42.26C94.6534 42.0067 94.3334 41.88 93.9267 41.88C93.5067 41.88 93.1667 42.01 92.9067 42.27C92.6467 42.53 92.5167 42.8767 92.5167 43.31V46.5H91.5567ZM100.183 46.68C99.8032 46.68 99.4532 46.61 99.1332 46.47C98.8132 46.33 98.5332 46.1333 98.2932 45.88C98.0599 45.6267 97.8765 45.3333 97.7432 45C97.6165 44.6667 97.5532 44.3067 97.5532 43.92V43.74C97.5532 43.36 97.6165 43.0033 97.7432 42.67C97.8699 42.3367 98.0465 42.0433 98.2732 41.79C98.5065 41.5367 98.7799 41.34 99.0932 41.2C99.4132 41.0533 99.7665 40.98 100.153 40.98C100.56 40.98 100.93 41.0667 101.263 41.24C101.597 41.4067 101.87 41.67 102.083 42.03C102.297 42.39 102.417 42.8567 102.443 43.43L102.043 42.79V39.2H103.003V46.5H102.243V44.13H102.523C102.497 44.7367 102.37 45.23 102.143 45.61C101.917 45.9833 101.63 46.2567 101.283 46.43C100.943 46.5967 100.577 46.68 100.183 46.68ZM100.313 45.84C100.64 45.84 100.937 45.7667 101.203 45.62C101.47 45.4733 101.683 45.2633 101.843 44.99C102.003 44.71 102.083 44.3833 102.083 44.01V43.55C102.083 43.1833 102 42.8733 101.833 42.62C101.673 42.36 101.457 42.1633 101.183 42.03C100.917 41.89 100.623 41.82 100.303 41.82C99.9499 41.82 99.6365 41.9033 99.3632 42.07C99.0965 42.2367 98.8865 42.47 98.7332 42.77C98.5865 43.07 98.5132 43.4233 98.5132 43.83C98.5132 44.2367 98.5899 44.5933 98.7432 44.9C98.8965 45.2 99.1099 45.4333 99.3832 45.6C99.6565 45.76 99.9665 45.84 100.313 45.84ZM106.598 46.66C105.898 46.66 105.354 46.51 104.968 46.21C104.588 45.91 104.391 45.5 104.378 44.98H105.278C105.291 45.1867 105.394 45.3833 105.588 45.57C105.788 45.75 106.124 45.84 106.598 45.84C107.024 45.84 107.351 45.7567 107.578 45.59C107.804 45.4167 107.918 45.2067 107.918 44.96C107.918 44.74 107.834 44.57 107.668 44.45C107.501 44.3233 107.231 44.24 106.858 44.2L106.278 44.14C105.771 44.0867 105.358 43.9367 105.038 43.69C104.718 43.4367 104.558 43.0833 104.558 42.63C104.558 42.29 104.644 42 104.818 41.76C104.991 41.5133 105.231 41.3267 105.538 41.2C105.844 41.0667 106.198 41 106.598 41C107.198 41 107.684 41.1333 108.058 41.4C108.431 41.6667 108.624 42.0633 108.638 42.59H107.738C107.731 42.3767 107.631 42.1967 107.438 42.05C107.251 41.8967 106.971 41.82 106.598 41.82C106.224 41.82 105.941 41.8967 105.748 42.05C105.554 42.2033 105.458 42.3967 105.458 42.63C105.458 42.83 105.524 42.99 105.658 43.11C105.798 43.23 106.024 43.3067 106.338 43.34L106.918 43.4C107.491 43.46 107.951 43.62 108.298 43.88C108.644 44.1333 108.818 44.4933 108.818 44.96C108.818 45.2933 108.721 45.59 108.528 45.85C108.341 46.1033 108.081 46.3033 107.748 46.45C107.414 46.59 107.031 46.66 106.598 46.66ZM116.934 46.5L113.924 43.29C113.618 42.9567 113.378 42.67 113.204 42.43C113.038 42.19 112.918 41.9633 112.844 41.75C112.778 41.5367 112.744 41.3067 112.744 41.06C112.744 40.6267 112.824 40.2667 112.984 39.98C113.151 39.6933 113.411 39.48 113.764 39.34C114.118 39.1933 114.574 39.12 115.134 39.12C115.354 39.12 115.601 39.13 115.874 39.15C116.148 39.17 116.391 39.1933 116.604 39.22V40.06C116.471 40.0467 116.298 40.0333 116.084 40.02C115.871 40 115.661 39.9867 115.454 39.98C115.248 39.9667 115.078 39.96 114.944 39.96C114.471 39.96 114.138 40.0567 113.944 40.25C113.758 40.4367 113.664 40.7133 113.664 41.08C113.664 41.3733 113.731 41.6433 113.864 41.89C114.004 42.1367 114.221 42.4167 114.514 42.73L118.064 46.5H116.934ZM114.454 46.68C113.941 46.68 113.491 46.5833 113.104 46.39C112.718 46.1967 112.418 45.9333 112.204 45.6C111.991 45.2667 111.884 44.8967 111.884 44.49V44.34C111.884 43.86 112.018 43.4367 112.284 43.07C112.558 42.6967 112.894 42.3967 113.294 42.17L113.794 42.84C113.501 42.9867 113.261 43.2033 113.074 43.49C112.894 43.77 112.804 44.08 112.804 44.42C112.804 44.7333 112.878 44.9967 113.024 45.21C113.178 45.4233 113.378 45.5867 113.624 45.7C113.878 45.8067 114.154 45.86 114.454 45.86C114.921 45.86 115.324 45.73 115.664 45.47C116.004 45.2033 116.264 44.8133 116.444 44.3C116.631 43.78 116.724 43.1367 116.724 42.37H117.584C117.584 43.0367 117.514 43.6367 117.374 44.17C117.241 44.6967 117.041 45.1467 116.774 45.52C116.508 45.8933 116.178 46.18 115.784 46.38C115.398 46.58 114.954 46.68 114.454 46.68ZM115.564 42.5V41.74H118.184V42.5H115.564ZM123.915 46.68C123.448 46.68 123.045 46.6 122.705 46.44C122.365 46.28 122.088 46.07 121.875 45.81C121.661 45.5433 121.501 45.2467 121.395 44.92C121.295 44.5933 121.245 44.26 121.245 43.92V43.74C121.245 43.3933 121.295 43.0567 121.395 42.73C121.501 42.4033 121.661 42.11 121.875 41.85C122.088 41.5833 122.358 41.3733 122.685 41.22C123.018 41.06 123.408 40.98 123.855 40.98C124.435 40.98 124.911 41.1067 125.285 41.36C125.665 41.6067 125.945 41.9267 126.125 42.32C126.311 42.7133 126.405 43.1333 126.405 43.58V44.01H121.665V43.29H125.705L125.485 43.68C125.485 43.3 125.425 42.9733 125.305 42.7C125.185 42.42 125.005 42.2033 124.765 42.05C124.525 41.8967 124.221 41.82 123.855 41.82C123.475 41.82 123.158 41.9067 122.905 42.08C122.658 42.2533 122.471 42.49 122.345 42.79C122.225 43.09 122.165 43.4367 122.165 43.83C122.165 44.21 122.225 44.5533 122.345 44.86C122.471 45.16 122.665 45.4 122.925 45.58C123.185 45.7533 123.515 45.84 123.915 45.84C124.335 45.84 124.675 45.7467 124.935 45.56C125.201 45.3733 125.361 45.1567 125.415 44.91H126.315C126.241 45.2767 126.095 45.5933 125.875 45.86C125.655 46.1267 125.378 46.33 125.045 46.47C124.711 46.61 124.335 46.68 123.915 46.68ZM130.998 46.5V44.9H130.838V43.05C130.838 42.6833 130.741 42.4067 130.548 42.22C130.361 42.0333 130.084 41.94 129.718 41.94C129.511 41.94 129.298 41.9433 129.078 41.95C128.858 41.9567 128.648 41.9633 128.448 41.97C128.248 41.9767 128.074 41.9867 127.928 42V41.16C128.074 41.1467 128.228 41.1367 128.388 41.13C128.554 41.1167 128.724 41.11 128.898 41.11C129.071 41.1033 129.238 41.1 129.398 41.1C129.944 41.1 130.391 41.1667 130.738 41.3C131.084 41.4267 131.341 41.6367 131.508 41.93C131.674 42.2233 131.758 42.62 131.758 43.12V46.5H130.998ZM129.248 46.64C128.848 46.64 128.501 46.5733 128.208 46.44C127.921 46.3 127.698 46.1 127.538 45.84C127.384 45.58 127.308 45.2667 127.308 44.9C127.308 44.52 127.391 44.2033 127.558 43.95C127.731 43.6967 127.981 43.5067 128.308 43.38C128.634 43.2467 129.028 43.18 129.488 43.18H130.938V43.9H129.448C129.061 43.9 128.764 43.9933 128.558 44.18C128.351 44.3667 128.248 44.6067 128.248 44.9C128.248 45.1933 128.351 45.43 128.558 45.61C128.764 45.79 129.061 45.88 129.448 45.88C129.674 45.88 129.891 45.84 130.098 45.76C130.304 45.6733 130.474 45.5333 130.608 45.34C130.748 45.14 130.824 44.8667 130.838 44.52L131.098 44.9C131.064 45.28 130.971 45.6 130.818 45.86C130.671 46.1133 130.464 46.3067 130.198 46.44C129.938 46.5733 129.621 46.64 129.248 46.64ZM133.52 46.5V41.16H134.28V43.36H134.24C134.24 42.58 134.41 42.01 134.75 41.65C135.096 41.2833 135.613 41.1 136.3 41.1H136.48V41.96H136.14C135.606 41.96 135.196 42.1033 134.91 42.39C134.623 42.67 134.48 43.0767 134.48 43.61V46.5H133.52ZM137.621 46.5V41.16H138.381V43.45H138.261C138.261 42.9233 138.331 42.48 138.471 42.12C138.618 41.7533 138.838 41.4767 139.131 41.29C139.425 41.0967 139.795 41 140.241 41H140.281C140.955 41 141.451 41.21 141.771 41.63C142.098 42.05 142.261 42.6567 142.261 43.45V46.5H141.301V43.25C141.301 42.8367 141.185 42.5067 140.951 42.26C140.718 42.0067 140.398 41.88 139.991 41.88C139.571 41.88 139.231 42.01 138.971 42.27C138.711 42.53 138.581 42.8767 138.581 43.31V46.5H137.621ZM20.77 59.66C20.1367 59.66 19.65 59.4533 19.31 59.04C18.97 58.6267 18.8 58.03 18.8 57.25V54.15H19.76V57.44C19.76 57.86 19.8733 58.19 20.1 58.43C20.3267 58.6633 20.6333 58.78 21.02 58.78C21.42 58.78 21.7467 58.6533 22 58.4C22.2533 58.14 22.38 57.7867 22.38 57.34V54.15H23.34V59.5H22.58V57.21H22.7C22.7 57.7367 22.63 58.1833 22.49 58.55C22.35 58.91 22.14 59.1867 21.86 59.38C21.5867 59.5667 21.2367 59.66 20.81 59.66H20.77ZM25.1993 61.5V54.16H25.9593V56.47L25.7793 56.45C25.8126 55.8767 25.9326 55.41 26.1393 55.05C26.3526 54.6833 26.6293 54.4133 26.9693 54.24C27.3093 54.0667 27.6793 53.98 28.0793 53.98C28.466 53.98 28.816 54.0533 29.1293 54.2C29.4493 54.3467 29.7226 54.5467 29.9493 54.8C30.176 55.0533 30.3493 55.3467 30.4693 55.68C30.5893 56.0133 30.6493 56.3667 30.6493 56.74V56.92C30.6493 57.2933 30.586 57.6467 30.4593 57.98C30.3326 58.3133 30.1526 58.6067 29.9193 58.86C29.6926 59.1133 29.4193 59.3133 29.0993 59.46C28.786 59.6067 28.4393 59.68 28.0593 59.68C27.6793 59.68 27.316 59.5967 26.9693 59.43C26.6226 59.2633 26.336 58.9933 26.1093 58.62C25.8826 58.2467 25.7526 57.7567 25.7193 57.15L26.1593 57.95V61.5H25.1993ZM27.9093 58.84C28.2693 58.84 28.5826 58.7567 28.8493 58.59C29.116 58.4167 29.3226 58.18 29.4693 57.88C29.616 57.5733 29.6893 57.2233 29.6893 56.83C29.6893 56.43 29.616 56.08 29.4693 55.78C29.3226 55.48 29.116 55.2467 28.8493 55.08C28.5826 54.9067 28.2693 54.82 27.9093 54.82C27.5893 54.82 27.2926 54.8933 27.0193 55.04C26.746 55.18 26.526 55.3867 26.3593 55.66C26.1993 55.9267 26.1193 56.25 26.1193 56.63V57.09C26.1193 57.4567 26.2026 57.77 26.3693 58.03C26.536 58.29 26.756 58.49 27.0293 58.63C27.3026 58.77 27.596 58.84 27.9093 58.84ZM36.4492 59.56C36.0492 59.56 35.7026 59.5033 35.4092 59.39C35.1226 59.2767 34.8992 59.0833 34.7392 58.81C34.5859 58.53 34.5092 58.1533 34.5092 57.68V52.54H35.4292V57.8C35.4292 58.0867 35.5059 58.31 35.6592 58.47C35.8192 58.6233 36.0426 58.7 36.3292 58.7H37.2692V59.56H36.4492ZM33.5892 54.88V54.16H37.2692V54.88H33.5892ZM41.048 59.68C40.5813 59.68 40.1713 59.6 39.818 59.44C39.4646 59.28 39.1646 59.07 38.918 58.81C38.678 58.5433 38.4946 58.2467 38.368 57.92C38.248 57.5933 38.188 57.26 38.188 56.92V56.74C38.188 56.4 38.2513 56.0667 38.378 55.74C38.5046 55.4067 38.6913 55.11 38.938 54.85C39.1846 54.5833 39.4846 54.3733 39.838 54.22C40.1913 54.06 40.5946 53.98 41.048 53.98C41.5013 53.98 41.9046 54.06 42.258 54.22C42.6113 54.3733 42.9113 54.5833 43.158 54.85C43.4046 55.11 43.5913 55.4067 43.718 55.74C43.8446 56.0667 43.908 56.4 43.908 56.74V56.92C43.908 57.26 43.8446 57.5933 43.718 57.92C43.598 58.2467 43.4146 58.5433 43.168 58.81C42.928 59.07 42.6313 59.28 42.278 59.44C41.9246 59.6 41.5146 59.68 41.048 59.68ZM41.048 58.82C41.448 58.82 41.788 58.7333 42.068 58.56C42.3546 58.38 42.5713 58.14 42.718 57.84C42.8713 57.54 42.948 57.2033 42.948 56.83C42.948 56.45 42.8713 56.11 42.718 55.81C42.5646 55.51 42.3446 55.2733 42.058 55.1C41.778 54.9267 41.4413 54.84 41.048 54.84C40.6613 54.84 40.3246 54.9267 40.038 55.1C39.7513 55.2733 39.5313 55.51 39.378 55.81C39.2246 56.11 39.148 56.45 39.148 56.83C39.148 57.2033 39.2213 57.54 39.368 57.84C39.5213 58.14 39.738 58.38 40.018 58.56C40.3046 58.7333 40.648 58.82 41.048 58.82ZM49.8612 59.68C49.3012 59.68 48.8278 59.5667 48.4412 59.34C48.0545 59.1067 47.7612 58.8033 47.5612 58.43C47.3612 58.0567 47.2612 57.66 47.2612 57.24H48.2012C48.2012 57.5467 48.2678 57.82 48.4012 58.06C48.5412 58.3 48.7345 58.49 48.9812 58.63C49.2278 58.77 49.5212 58.84 49.8612 58.84C50.1945 58.84 50.4845 58.7733 50.7312 58.64C50.9845 58.5 51.1812 58.31 51.3212 58.07C51.4612 57.8233 51.5312 57.5467 51.5312 57.24C51.5312 56.9333 51.4612 56.6567 51.3212 56.41C51.1878 56.1633 50.9945 55.9667 50.7412 55.82C50.4945 55.6733 50.2012 55.6 49.8612 55.6C49.6145 55.6 49.3645 55.6433 49.1112 55.73C48.8578 55.81 48.6545 55.9267 48.5012 56.08H47.6212L47.9912 52.2H51.8212V53.02H48.5512L48.7912 52.69L48.5112 55.52L48.2512 55.43C48.4445 55.2367 48.6778 55.0833 48.9512 54.97C49.2312 54.8567 49.5478 54.8 49.9012 54.8C50.4612 54.8 50.9312 54.9167 51.3112 55.15C51.6912 55.3767 51.9778 55.6733 52.1712 56.04C52.3712 56.4 52.4712 56.7767 52.4712 57.17V57.31C52.4712 57.7033 52.3712 58.0833 52.1712 58.45C51.9712 58.81 51.6745 59.1067 51.2812 59.34C50.8945 59.5667 50.4212 59.68 49.8612 59.68ZM56.6516 59.68C56.105 59.68 55.6383 59.5867 55.2516 59.4C54.8716 59.2067 54.5616 58.9467 54.3216 58.62C54.0883 58.2933 53.9183 57.9167 53.8116 57.49C53.705 57.0567 53.6516 56.6 53.6516 56.12V55.58C53.6516 54.9067 53.755 54.3 53.9616 53.76C54.175 53.22 54.5016 52.7933 54.9416 52.48C55.3883 52.16 55.9583 52 56.6516 52C57.345 52 57.9116 52.16 58.3516 52.48C58.7916 52.7933 59.115 53.22 59.3216 53.76C59.535 54.3 59.6416 54.9067 59.6416 55.58V56.12C59.6416 56.6 59.5883 57.0567 59.4816 57.49C59.375 57.9167 59.2016 58.2933 58.9616 58.62C58.7283 58.9467 58.4216 59.2067 58.0416 59.4C57.6616 59.5867 57.1983 59.68 56.6516 59.68ZM56.6516 58.8C57.345 58.8 57.8516 58.5667 58.1716 58.1C58.4983 57.6267 58.6616 56.88 58.6616 55.86C58.6616 54.7933 58.495 54.03 58.1616 53.57C57.835 53.11 57.3316 52.88 56.6516 52.88C55.965 52.88 55.455 53.11 55.1216 53.57C54.795 54.03 54.6316 54.7867 54.6316 55.84C54.6316 56.8667 54.795 57.6167 55.1216 58.09C55.4483 58.5633 55.9583 58.8 56.6516 58.8ZM64.0833 59.68C63.5366 59.68 63.0699 59.5867 62.6833 59.4C62.3033 59.2067 61.9933 58.9467 61.7533 58.62C61.5199 58.2933 61.3499 57.9167 61.2433 57.49C61.1366 57.0567 61.0833 56.6 61.0833 56.12V55.58C61.0833 54.9067 61.1866 54.3 61.3933 53.76C61.6066 53.22 61.9333 52.7933 62.3733 52.48C62.8199 52.16 63.3899 52 64.0833 52C64.7766 52 65.3433 52.16 65.7833 52.48C66.2233 52.7933 66.5466 53.22 66.7533 53.76C66.9666 54.3 67.0733 54.9067 67.0733 55.58V56.12C67.0733 56.6 67.0199 57.0567 66.9133 57.49C66.8066 57.9167 66.6333 58.2933 66.3933 58.62C66.1599 58.9467 65.8533 59.2067 65.4733 59.4C65.0933 59.5867 64.6299 59.68 64.0833 59.68ZM64.0833 58.8C64.7766 58.8 65.2833 58.5667 65.6033 58.1C65.9299 57.6267 66.0933 56.88 66.0933 55.86C66.0933 54.7933 65.9266 54.03 65.5933 53.57C65.2666 53.11 64.7633 52.88 64.0833 52.88C63.3966 52.88 62.8866 53.11 62.5533 53.57C62.2266 54.03 62.0633 54.7867 62.0633 55.84C62.0633 56.8667 62.2266 57.6167 62.5533 58.09C62.8799 58.5633 63.3899 58.8 64.0833 58.8ZM70.9903 61.5V54.16H71.7503V56.47L71.5703 56.45C71.6036 55.8767 71.7236 55.41 71.9303 55.05C72.1436 54.6833 72.4203 54.4133 72.7603 54.24C73.1003 54.0667 73.4703 53.98 73.8703 53.98C74.257 53.98 74.607 54.0533 74.9203 54.2C75.2403 54.3467 75.5136 54.5467 75.7403 54.8C75.967 55.0533 76.1403 55.3467 76.2603 55.68C76.3803 56.0133 76.4403 56.3667 76.4403 56.74V56.92C76.4403 57.2933 76.377 57.6467 76.2503 57.98C76.1236 58.3133 75.9436 58.6067 75.7103 58.86C75.4836 59.1133 75.2103 59.3133 74.8903 59.46C74.577 59.6067 74.2303 59.68 73.8503 59.68C73.4703 59.68 73.107 59.5967 72.7603 59.43C72.4136 59.2633 72.127 58.9933 71.9003 58.62C71.6736 58.2467 71.5436 57.7567 71.5103 57.15L71.9503 57.95V61.5H70.9903ZM73.7003 58.84C74.0603 58.84 74.3736 58.7567 74.6403 58.59C74.907 58.4167 75.1136 58.18 75.2603 57.88C75.407 57.5733 75.4803 57.2233 75.4803 56.83C75.4803 56.43 75.407 56.08 75.2603 55.78C75.1136 55.48 74.907 55.2467 74.6403 55.08C74.3736 54.9067 74.0603 54.82 73.7003 54.82C73.3803 54.82 73.0836 54.8933 72.8103 55.04C72.537 55.18 72.317 55.3867 72.1503 55.66C71.9903 55.9267 71.9103 56.25 71.9103 56.63V57.09C71.9103 57.4567 71.9936 57.77 72.1603 58.03C72.327 58.29 72.547 58.49 72.8203 58.63C73.0936 58.77 73.387 58.84 73.7003 58.84ZM80.3448 59.68C79.8782 59.68 79.4682 59.6 79.1148 59.44C78.7615 59.28 78.4615 59.07 78.2148 58.81C77.9748 58.5433 77.7915 58.2467 77.6648 57.92C77.5448 57.5933 77.4848 57.26 77.4848 56.92V56.74C77.4848 56.4 77.5482 56.0667 77.6748 55.74C77.8015 55.4067 77.9882 55.11 78.2348 54.85C78.4815 54.5833 78.7815 54.3733 79.1348 54.22C79.4882 54.06 79.8915 53.98 80.3448 53.98C80.7982 53.98 81.2015 54.06 81.5548 54.22C81.9082 54.3733 82.2082 54.5833 82.4548 54.85C82.7015 55.11 82.8882 55.4067 83.0148 55.74C83.1415 56.0667 83.2048 56.4 83.2048 56.74V56.92C83.2048 57.26 83.1415 57.5933 83.0148 57.92C82.8948 58.2467 82.7115 58.5433 82.4648 58.81C82.2248 59.07 81.9282 59.28 81.5748 59.44C81.2215 59.6 80.8115 59.68 80.3448 59.68ZM80.3448 58.82C80.7448 58.82 81.0848 58.7333 81.3648 58.56C81.6515 58.38 81.8682 58.14 82.0148 57.84C82.1682 57.54 82.2448 57.2033 82.2448 56.83C82.2448 56.45 82.1682 56.11 82.0148 55.81C81.8615 55.51 81.6415 55.2733 81.3548 55.1C81.0748 54.9267 80.7382 54.84 80.3448 54.84C79.9582 54.84 79.6215 54.9267 79.3348 55.1C79.0482 55.2733 78.8282 55.51 78.6748 55.81C78.5215 56.11 78.4448 56.45 78.4448 56.83C78.4448 57.2033 78.5182 57.54 78.6648 57.84C78.8182 58.14 79.0348 58.38 79.3148 58.56C79.6015 58.7333 79.9448 58.82 80.3448 58.82ZM84.9027 59.5V54.16H85.8627V59.5H84.9027ZM84.0827 54.92V54.16H85.8627V54.92H84.0827ZM85.1727 53.3C84.9593 53.3 84.7993 53.2433 84.6927 53.13C84.5927 53.0167 84.5427 52.8733 84.5427 52.7C84.5427 52.5267 84.5927 52.3833 84.6927 52.27C84.7993 52.1567 84.9593 52.1 85.1727 52.1C85.386 52.1 85.5427 52.1567 85.6427 52.27C85.7493 52.3833 85.8027 52.5267 85.8027 52.7C85.8027 52.8733 85.7493 53.0167 85.6427 53.13C85.5427 53.2433 85.386 53.3 85.1727 53.3ZM87.7188 59.5V54.16H88.4788V56.45H88.3588C88.3588 55.9233 88.4288 55.48 88.5688 55.12C88.7155 54.7533 88.9355 54.4767 89.2288 54.29C89.5222 54.0967 89.8922 54 90.3388 54H90.3788C91.0522 54 91.5488 54.21 91.8688 54.63C92.1955 55.05 92.3588 55.6567 92.3588 56.45V59.5H91.3988V56.25C91.3988 55.8367 91.2822 55.5067 91.0488 55.26C90.8155 55.0067 90.4955 54.88 90.0888 54.88C89.6688 54.88 89.3288 55.01 89.0688 55.27C88.8088 55.53 88.6788 55.8767 88.6788 56.31V59.5H87.7188ZM96.1953 59.56C95.7953 59.56 95.4486 59.5033 95.1553 59.39C94.8686 59.2767 94.6453 59.0833 94.4853 58.81C94.332 58.53 94.2553 58.1533 94.2553 57.68V52.54H95.1753V57.8C95.1753 58.0867 95.252 58.31 95.4053 58.47C95.5653 58.6233 95.7886 58.7 96.0753 58.7H97.0153V59.56H96.1953ZM93.3353 54.88V54.16H97.0153V54.88H93.3353ZM100.084 59.66C99.3841 59.66 98.8407 59.51 98.4541 59.21C98.0741 58.91 97.8774 58.5 97.8641 57.98H98.7641C98.7774 58.1867 98.8807 58.3833 99.0741 58.57C99.2741 58.75 99.6107 58.84 100.084 58.84C100.511 58.84 100.837 58.7567 101.064 58.59C101.291 58.4167 101.404 58.2067 101.404 57.96C101.404 57.74 101.321 57.57 101.154 57.45C100.987 57.3233 100.717 57.24 100.344 57.2L99.7641 57.14C99.2574 57.0867 98.8441 56.9367 98.5241 56.69C98.2041 56.4367 98.0441 56.0833 98.0441 55.63C98.0441 55.29 98.1307 55 98.3041 54.76C98.4774 54.5133 98.7174 54.3267 99.0241 54.2C99.3307 54.0667 99.6841 54 100.084 54C100.684 54 101.171 54.1333 101.544 54.4C101.917 54.6667 102.111 55.0633 102.124 55.59H101.224C101.217 55.3767 101.117 55.1967 100.924 55.05C100.737 54.8967 100.457 54.82 100.084 54.82C99.7107 54.82 99.4274 54.8967 99.2341 55.05C99.0407 55.2033 98.9441 55.3967 98.9441 55.63C98.9441 55.83 99.0107 55.99 99.1441 56.11C99.2841 56.23 99.5107 56.3067 99.8241 56.34L100.404 56.4C100.977 56.46 101.437 56.62 101.784 56.88C102.131 57.1333 102.304 57.4933 102.304 57.96C102.304 58.2933 102.207 58.59 102.014 58.85C101.827 59.1033 101.567 59.3033 101.234 59.45C100.901 59.59 100.517 59.66 100.084 59.66Z" fill="#101828"/>
<rect x="232" y="21" width="95" height="36" rx="18" fill="#BD8CBF"/>
<path d="M255.348 42V36.128H256.132V42H255.348ZM258.956 42L257.02 39.4H257.94L259.908 42H258.956ZM255.836 39.888V39.192H257.404C257.649 39.192 257.86 39.1413 258.036 39.04C258.212 38.9387 258.348 38.8 258.444 38.624C258.54 38.4427 258.588 38.2373 258.588 38.008C258.588 37.7787 258.54 37.576 258.444 37.4C258.348 37.2187 258.212 37.0773 258.036 36.976C257.86 36.8693 257.649 36.816 257.404 36.816H255.836V36.128H257.26C257.687 36.128 258.06 36.192 258.38 36.32C258.7 36.448 258.948 36.6453 259.124 36.912C259.3 37.1787 259.388 37.5227 259.388 37.944V38.072C259.388 38.4933 259.297 38.8373 259.116 39.104C258.94 39.3707 258.692 39.568 258.372 39.696C258.057 39.824 257.687 39.888 257.26 39.888H255.836ZM260.95 42V36.16H261.734V42H260.95ZM261.574 42V41.296H264.406V42H261.574ZM261.574 39.384V38.68H264.158V39.384H261.574ZM261.574 36.864V36.16H264.326V36.864H261.574ZM265.746 42V36.16H266.53V42H265.746ZM266.37 39.4V38.696L268.874 38.688V39.392L266.37 39.4ZM266.37 36.864V36.16H269.01V36.864H266.37ZM270.223 42V36.16H271.007V42H270.223ZM270.847 42V41.296H273.679V42H270.847ZM270.847 39.384V38.68H273.431V39.384H270.847ZM270.847 36.864V36.16H273.599V36.864H270.847ZM275.02 42V36.128H275.804V42H275.02ZM278.628 42L276.692 39.4H277.612L279.58 42H278.628ZM275.508 39.888V39.192H277.076C277.321 39.192 277.532 39.1413 277.708 39.04C277.884 38.9387 278.02 38.8 278.116 38.624C278.212 38.4427 278.26 38.2373 278.26 38.008C278.26 37.7787 278.212 37.576 278.116 37.4C278.02 37.2187 277.884 37.0773 277.708 36.976C277.532 36.8693 277.321 36.816 277.076 36.816H275.508V36.128H276.932C277.359 36.128 277.732 36.192 278.052 36.32C278.372 36.448 278.62 36.6453 278.796 36.912C278.972 37.1787 279.06 37.5227 279.06 37.944V38.072C279.06 38.4933 278.969 38.8373 278.788 39.104C278.612 39.3707 278.364 39.568 278.044 39.696C277.729 39.824 277.359 39.888 276.932 39.888H275.508ZM282.442 42V36.16H283.722L286.69 41.296H286.946L286.786 41.44V36.16H287.538V42H286.242L283.274 36.864H283.018L283.178 36.72V42H282.442ZM291.847 42.144C291.324 42.144 290.873 42.0507 290.495 41.864C290.116 41.6773 289.804 41.432 289.559 41.128C289.313 40.824 289.129 40.4987 289.007 40.152C288.889 39.8053 288.831 39.472 288.831 39.152V38.976C288.831 38.6293 288.892 38.28 289.015 37.928C289.137 37.576 289.324 37.256 289.575 36.968C289.825 36.6747 290.137 36.44 290.511 36.264C290.889 36.088 291.335 36 291.847 36C292.359 36 292.801 36.088 293.175 36.264C293.553 36.44 293.868 36.6747 294.119 36.968C294.369 37.256 294.556 37.576 294.679 37.928C294.801 38.28 294.863 38.6293 294.863 38.976V39.152C294.863 39.472 294.801 39.8053 294.679 40.152C294.561 40.4987 294.38 40.824 294.135 41.128C293.889 41.432 293.577 41.6773 293.199 41.864C292.82 42.0507 292.369 42.144 291.847 42.144ZM291.847 41.424C292.188 41.424 292.495 41.36 292.767 41.232C293.044 41.104 293.279 40.9307 293.471 40.712C293.663 40.488 293.809 40.2373 293.911 39.96C294.012 39.6773 294.063 39.3813 294.063 39.072C294.063 38.7467 294.012 38.4427 293.911 38.16C293.809 37.8773 293.663 37.6293 293.471 37.416C293.279 37.1973 293.044 37.0267 292.767 36.904C292.495 36.7813 292.188 36.72 291.847 36.72C291.505 36.72 291.196 36.7813 290.919 36.904C290.647 37.0267 290.415 37.1973 290.223 37.416C290.031 37.6293 289.884 37.8773 289.783 38.16C289.681 38.4427 289.631 38.7467 289.631 39.072C289.631 39.3813 289.681 39.6773 289.783 39.96C289.884 40.2373 290.031 40.488 290.223 40.712C290.415 40.9307 290.647 41.104 290.919 41.232C291.196 41.36 291.505 41.424 291.847 41.424ZM297.027 42L295.451 36.16H296.259L297.627 41.488L297.251 41.296H298.203L297.787 41.488L298.899 36.4H299.635L298.363 42H297.027ZM300.539 42L299.139 36.4H299.899L301.155 41.488L300.755 41.296H301.715L301.307 41.488L302.531 36.16H303.315L301.883 42H300.539Z" fill="white"/>
</g>
<defs>
<clipPath id="clip0_4101_17381">
<rect width="345" height="78" rx="12" fill="white"/>
</clipPath>
</defs>
</svg>
