<svg width="24" height="24" viewBox="0 0 24 24" fill="none" xmlns="http://www.w3.org/2000/svg">
<path fill-rule="evenodd" clip-rule="evenodd" d="M18.5542 7.35092C18.9128 7.14351 19.3716 7.26603 19.579 7.62458C20.3239 8.91235 20.75 10.4076 20.75 12.0001C20.75 16.8326 16.8325 20.7501 12 20.7501C11.0614 20.7501 10.1566 20.6021 9.30817 20.328L9.8437 21.733C9.99123 22.12 9.79707 22.5534 9.41002 22.7009C9.02297 22.8485 8.58961 22.6543 8.44207 22.2673L7.26395 19.1765C7.15061 18.8792 7.23723 18.5427 7.48004 18.337C7.72285 18.1314 8.069 18.1013 8.34361 18.2621C9.41644 18.89 10.665 19.2501 12 19.2501C16.0041 19.2501 19.25 16.0042 19.25 12.0001C19.25 10.6783 18.897 9.44128 18.2806 8.37567C18.0732 8.01712 18.1957 7.55833 18.5542 7.35092Z" fill="#BD8CBF"/>
<path opacity="0.4" fill-rule="evenodd" clip-rule="evenodd" d="M14.59 1.29939C14.9771 1.15186 15.4104 1.34603 15.558 1.73308L16.7361 4.82384C16.8494 5.12116 16.7628 5.45764 16.52 5.66328C16.2771 5.86893 15.931 5.89897 15.6564 5.73824C14.5836 5.11032 13.335 4.7502 12 4.7502C7.99594 4.7502 4.75 7.99614 4.75 12.0002C4.75 13.322 5.10304 14.559 5.71946 15.6247C5.92687 15.9832 5.80435 16.442 5.4458 16.6494C5.08726 16.8568 4.62846 16.7343 4.42105 16.3757C3.67612 15.088 3.25 13.5927 3.25 12.0002C3.25 7.16771 7.16751 3.2502 12 3.2502C12.9386 3.2502 13.8434 3.39822 14.6918 3.67229L14.1563 2.26733C14.0088 1.88028 14.203 1.44692 14.59 1.29939Z" fill="#BD8CBF"/>
</svg>
