<svg width="24" height="24" viewBox="0 0 24 24" fill="none" xmlns="http://www.w3.org/2000/svg">
<path d="M22.2647 2.4268C21.98 2.18994 21.6364 2.0347 21.2704 1.97761C20.9045 1.92052 20.5299 1.96371 20.1866 2.10259L2.26566 9.33794C1.88241 9.49563 1.55618 9.76613 1.33026 10.1136C1.10434 10.461 0.989427 10.8689 1.00076 11.2832C1.0121 11.6974 1.14916 12.0985 1.39374 12.433C1.63832 12.7676 1.97886 13.0198 2.37016 13.1563L5.99516 14.417L8.01566 21.0987C8.04312 21.1879 8.08297 21.2729 8.13404 21.3511C8.14179 21.3631 8.15272 21.372 8.16096 21.3837C8.21996 21.466 8.29127 21.5388 8.37239 21.5994C8.39546 21.617 8.41755 21.6335 8.44221 21.6491C8.53714 21.7121 8.64228 21.7581 8.75294 21.7852L8.76478 21.7862L8.77149 21.7891C8.83802 21.8026 8.90574 21.8095 8.97364 21.8096C8.98017 21.8096 8.98597 21.8065 8.99244 21.8064C9.0949 21.8046 9.19647 21.7869 9.29353 21.754C9.31611 21.7464 9.33546 21.7335 9.35737 21.7242C9.42975 21.6942 9.49832 21.6558 9.56166 21.6096C9.61238 21.5669 9.66312 21.5242 9.71388 21.4815L12.416 18.4981L16.4463 21.6201C16.8011 21.8964 17.2379 22.0465 17.6875 22.0469C18.1587 22.0463 18.6154 21.8837 18.9809 21.5864C19.3465 21.2892 19.5987 20.8752 19.6954 20.4141L22.958 4.39751C23.032 4.03703 23.0065 3.66323 22.8844 3.3161C22.7623 2.96897 22.5481 2.66158 22.2647 2.4268ZM9.37016 14.7354C9.2315 14.8735 9.13672 15.0495 9.0977 15.2413L8.78819 16.7453L8.00413 14.1522L12.0694 12.0352L9.37016 14.7354ZM17.6719 20.0391L12.9092 16.3496C12.71 16.1957 12.46 16.1224 12.2092 16.1445C11.9583 16.1666 11.725 16.2824 11.5557 16.4688L10.6903 17.424L10.9961 15.9375L18.0791 8.85451C18.2482 8.68567 18.3512 8.46187 18.3695 8.22364C18.3878 7.9854 18.3201 7.7485 18.1788 7.55583C18.0375 7.36316 17.8319 7.22748 17.5992 7.17335C17.3664 7.11922 17.122 7.15023 16.9102 7.26076L6.74491 12.5534L3.02055 11.1905L20.999 3.99807L17.6719 20.0391Z" fill="#353849"/>
</svg>
